<?xml version="1.0" standalone="no"?>
<!DOCTYPE svg PUBLIC "-//W3C//DTD SVG 20010904//EN"
 "http://www.w3.org/TR/2001/REC-SVG-20010904/DTD/svg10.dtd">
<svg version="1.0" xmlns="http://www.w3.org/2000/svg"
 width="963.000000pt" height="963.000000pt" viewBox="0 0 963.000000 963.000000"
 preserveAspectRatio="xMidYMid meet">

<g transform="translate(0.000000,963.000000) scale(0.100000,-0.100000)"
fill="#000000" stroke="none">
<path d="M4545 9623 c-1051 -63 -2027 -448 -2821 -1114 -482 -403 -892 -912
-1178 -1459 -366 -702 -546 -1438 -546 -2235 0 -598 98 -1144 302 -1687 530
-1414 1681 -2489 3133 -2928 396 -120 813 -185 1255 -196 577 -16 1103 63
1650 246 420 140 756 304 1135 555 982 649 1700 1653 1995 2790 108 414 154
777 154 1220 0 149 -6 331 -13 405 -58 625 -210 1173 -476 1715 -99 201 -250
465 -267 465 -15 0 -728 -378 -948 -503 -244 -139 -393 -231 -590 -365 -225
-153 -654 -456 -890 -627 -431 -312 -572 -412 -795 -559 -364 -242 -603 -388
-890 -546 -197 -109 -698 -362 -850 -429 -174 -78 -780 -378 -920 -457 -289
-162 -496 -295 -789 -508 -344 -251 -597 -482 -901 -826 -203 -228 -203 -229
-88 -51 275 423 666 818 1093 1101 117 78 182 129 149 118 -8 -3 -33 14 -57
38 -24 23 -49 41 -55 40 -7 -2 -9 -1 -4 1 18 11 4 23 -20 17 -22 -6 -25 -4
-20 10 12 30 -28 17 -124 -40 -213 -128 -457 -304 -629 -453 -122 -106 -126
-106 -38 6 142 179 385 408 607 571 144 105 153 115 140 148 -5 14 -7 30 -3
35 3 5 2 14 -1 20 -10 16 -14 149 -4 143 5 -3 9 0 9 5 0 6 -6 11 -12 11 -7 0
-5 5 5 11 9 6 15 15 11 20 -3 5 0 24 6 43 13 42 17 61 25 133 3 31 11 63 17
70 5 7 16 117 24 245 34 558 107 825 342 1247 133 240 238 378 452 592 206
207 363 320 616 445 552 271 1152 325 1689 154 87 -28 127 -50 91 -50 -8 0
-16 -5 -18 -12 -2 -6 -26 -17 -54 -25 -70 -20 -83 -23 -144 -32 -30 -5 -66
-11 -80 -15 -14 -3 -88 -10 -164 -15 -76 -6 -141 -12 -143 -15 -2 -2 -13 -93
-24 -202 -23 -216 -27 -249 -35 -241 -3 2 0 101 7 220 7 118 9 222 5 232 -5
15 -15 16 -64 10 -100 -12 -126 -14 -183 -19 -31 -3 -69 -8 -84 -12 l-28 -7 6
-131 c4 -72 16 -201 27 -286 22 -171 33 -280 25 -265 -9 19 -64 362 -85 535
-12 96 -24 177 -26 179 -2 2 -34 -4 -71 -14 -38 -9 -79 -19 -93 -22 -14 -2
-49 -11 -78 -21 -63 -20 -65 6 18 -268 51 -166 93 -335 115 -454 l6 -35 -20
42 c-11 23 -36 95 -56 160 -108 350 -167 523 -178 523 -18 0 -235 -75 -292
-101 -27 -12 -52 -23 -55 -23 -8 -1 -144 -70 -150 -76 -3 -3 -27 -15 -54 -28
-143 -68 -347 -263 -301 -289 7 -5 102 -93 212 -198 109 -104 241 -230 293
-280 131 -123 91 -91 -150 120 -324 285 -336 295 -359 295 -21 0 -93 -66 -167
-153 -32 -39 -109 -184 -120 -230 -3 -15 -10 -29 -14 -32 -4 -2 -5 -21 -3 -42
2 -21 5 -43 5 -50 1 -6 8 -9 16 -5 9 3 13 1 9 -5 -4 -6 71 -53 171 -108 269
-150 436 -254 407 -255 -10 0 -333 162 -523 262 -55 29 -85 39 -90 32 -4 -6
-13 -13 -20 -15 -8 -3 26 -26 75 -53 107 -60 253 -147 253 -152 0 -6 -48 16
-211 95 -80 39 -151 71 -157 71 -10 0 -72 -137 -72 -159 0 -5 -5 -22 -12 -38
-6 -15 -12 -30 -13 -33 0 -3 -6 -21 -12 -40 -12 -35 -42 -217 -46 -277 -1 -18
1 -33 5 -33 5 0 8 -7 8 -15 0 -8 -8 -15 -17 -15 -52 0 16 -12 197 -35 378 -47
369 -51 -70 -25 -80 4 -147 6 -150 3 -8 -8 -6 -207 3 -219 4 -6 3 -23 -3 -38
-6 -16 -6 -35 -1 -49 5 -12 15 -42 22 -67 7 -25 27 -72 44 -105 26 -52 35 -61
68 -69 41 -11 47 -21 17 -31 -28 -9 -26 -63 4 -108 13 -19 22 -38 18 -41 -14
-15 58 4 103 26 129 65 382 175 855 371 378 156 856 380 1180 551 352 187 478
265 1010 627 471 319 653 437 936 605 594 350 1198 618 1827 809 60 18 85 30
80 38 -22 39 -98 147 -171 247 -445 602 -1046 1107 -1719 1443 -568 285 -1193
454 -1838 497 -137 9 -456 11 -580 3z m3255 -1757 c0 -2 -30 -23 -67 -47 -38
-24 -189 -122 -338 -219 -579 -378 -590 -385 -320 -183 237 177 402 283 619
399 106 56 106 56 106 50z m-1820 -837 c0 -15 -212 -325 -320 -469 -47 -63
-124 -167 -169 -230 -96 -133 -107 -146 -90 -105 58 135 135 261 264 435 56
74 118 160 140 190 97 138 140 190 157 190 10 0 18 -5 18 -11z m23 -132 c-9
-16 -221 -297 -241 -320 -30 -34 -23 -8 10 40 19 26 67 95 107 153 84 121 110
152 123 144 4 -3 5 -11 1 -17z m-493 -347 c-17 -34 -33 -60 -36 -57 -3 2 10
35 28 71 18 37 34 63 36 57 2 -5 -11 -37 -28 -71z m-335 -86 c-15 -58 -30
-102 -33 -100 -2 3 8 56 23 118 16 62 30 107 33 99 2 -7 -8 -60 -23 -117z
m3181 -8 c-66 -39 -345 -226 -531 -356 -400 -279 -495 -349 -900 -670 -143
-114 -366 -289 -495 -390 -1528 -1195 -1760 -1390 -2198 -1855 -125 -132 -396
-409 -603 -615 -206 -206 -446 -449 -532 -540 -87 -92 -153 -154 -148 -140 5
14 43 91 84 172 201 390 594 981 917 1378 109 133 485 514 610 617 104 86 259
208 363 287 76 57 82 66 78 116 -4 50 -8 52 -61 25 -112 -57 -663 -445 -1253
-882 -1006 -746 -1405 -1112 -1935 -1770 -67 -84 -125 -153 -127 -153 -13 0
154 317 235 447 149 237 364 513 553 709 123 128 389 368 617 558 219 183 474
354 819 548 222 126 206 116 199 123 -3 3 -23 -1 -46 -9 -23 -8 -49 -15 -59
-15 -30 -1 -122 -9 -243 -22 -111 -11 -126 -12 -170 -7 -21 2 -32 19 -22 35
12 18 183 112 602 333 957 503 997 526 2100 1251 468 308 603 390 800 489 189
94 426 197 484 210 63 14 130 34 136 41 3 3 28 8 57 11 37 4 53 1 57 -8 3 -9
0 -11 -11 -7 -11 4 -14 2 -9 -5 4 -8 2 -10 -7 -6 -9 3 -22 -7 -34 -25 -13 -21
-76 -65 -195 -135 -211 -125 -456 -282 -593 -379 -128 -90 -545 -407 -545
-414 0 -7 -14 -16 622 383 374 235 566 337 953 509 285 127 428 185 439 177 6
-3 2 -10 -8 -16z m-4295 -178 c15 -28 5 -21 -21 15 -15 20 -17 27 -6 18 9 -8
22 -23 27 -33z m1919 -33 c-13 -14 -26 -22 -29 -19 -3 3 5 14 18 25 33 27 39
24 11 -6z m1378 -1357 c2 -11 -6 -18 -25 -22 -38 -8 -409 -34 -563 -40 l-125
-5 120 15 c387 50 571 72 580 70 6 -2 11 -10 13 -18z m-4143 -278 c-11 -5 -33
-9 -50 -9 -26 0 -27 2 -10 9 11 5 34 9 50 9 26 0 27 -2 10 -9z m3732 -151
c183 -22 217 -30 198 -47 -9 -8 -384 47 -419 62 -25 10 49 5 221 -15z m-437
-289 c128 -49 255 -108 248 -116 -9 -9 -275 91 -392 148 -58 28 -59 29 -21 22
22 -4 96 -28 165 -54z m-20 -360 c74 -47 183 -117 243 -155 59 -37 107 -75
107 -83 0 -8 -6 -12 -15 -9 -31 12 -510 340 -540 370 -15 15 54 -26 205 -123z
m-279 -47 c13 -16 12 -17 -3 -4 -10 7 -18 15 -18 17 0 8 8 3 21 -13z m336
-229 c41 -28 53 -44 33 -44 -10 0 -314 221 -340 248 -13 13 159 -101 307 -204z
m-702 56 c10 -11 16 -20 13 -20 -3 0 -13 9 -23 20 -10 11 -16 20 -13 20 3 0
13 -9 23 -20z m-1010 -707 c-7 -254 -11 -297 -27 -287 -8 5 -9 49 -5 143 6
134 28 371 34 371 2 0 1 -102 -2 -227z m-1643 -250 c-207 -216 -378 -384 -338
-333 104 131 502 538 514 526 3 -3 -76 -90 -176 -193z m2528 144 c0 -5 -4 -5
-10 -2 -5 3 -10 14 -10 23 0 15 2 15 10 2 5 -8 10 -19 10 -23z m-522 -122 c1
-31 -1 -35 -8 -20 -5 11 -8 40 -8 65 0 37 1 41 8 20 4 -14 8 -43 8 -65z"/>
</g>
</svg>
